# xmcd
#
# Track frame offsets: 
#        150
#        12123
#        24820
#        38671
#        59092
#        76922
#        94747
#        106241
#        144929
#
# Disc length: 2148 seconds
#
# Revision: 0
# Processed by: cddbd v1.5.2PL0 Copyright (c) Steve Scherf et al.
# Submitted via: ExactAudioCopy v1.0b3
#
DISCID=60086209
DTITLE=Billy Paul - Feelin' Good at the Cadillac Club 
DYEAR=1968
DGENRE=Soul
TTITLE0=Billy Boy
TTITLE1=Missing You
TTITLE2=Bluesette
TTITLE3=Clear Day
TTITLE4=Just In Time
TTITLE5=That's Life
TTITLE6=Don't Think Twice
TTITLE7=Feelin' Good
TTITLE8=Somewhere
EXTD=
EXTT0=
EXTT1=
EXTT2=
EXTT3=
EXTT4=
EXTT5=
EXTT6=
EXTT7=
EXTT8=
PLAYORDER=
